<svg width="24" height="24" viewBox="0 0 24 24" fill="none" xmlns="http://www.w3.org/2000/svg">
<g clip-path="url(#clip0_1_369)">
<path d="M12.152 6.896C11.204 6.896 9.737 5.818 8.192 5.856C6.152 5.883 4.282 7.039 3.231 8.87C1.114 12.545 2.685 17.973 4.75 20.96C5.763 22.414 6.958 24.05 8.542 23.999C10.062 23.934 10.632 23.012 12.477 23.012C14.308 23.012 14.827 23.999 16.437 23.96C18.074 23.934 19.113 22.48 20.113 21.012C21.269 19.324 21.749 17.687 21.775 17.597C21.736 17.584 18.593 16.376 18.555 12.74C18.529 9.7 21.035 8.246 21.152 8.181C19.723 6.091 17.529 5.857 16.762 5.805C14.762 5.649 13.087 6.895 12.152 6.895V6.896ZM15.53 3.83C16.373 2.818 16.93 1.403 16.775 0C15.568 0.052 14.113 0.805 13.243 1.818C12.463 2.714 11.789 4.156 11.97 5.532C13.308 5.636 14.685 4.844 15.529 3.831" fill="white"/>
</g>
<defs>
<clipPath id="clip0_1_369">
<rect width="24" height="24" fill="white"/>
</clipPath>
</defs>
</svg>
