<svg width="24" height="24" viewBox="0 0 24 24" fill="none" xmlns="http://www.w3.org/2000/svg">
<g clip-path="url(#clip0_1_371)">
<path fill-rule="evenodd" clip-rule="evenodd" d="M23.52 12.2728C23.52 11.4219 23.4436 10.6037 23.3018 9.81822H12V14.46H18.4582C18.18 15.96 17.3345 17.2309 16.0636 18.0819V21.0928H19.9418C22.2109 19.0037 23.52 15.9273 23.52 12.2728Z" fill="#4285F4"/>
<path fill-rule="evenodd" clip-rule="evenodd" d="M12.0003 24C15.2403 24 17.9566 22.9254 19.9421 21.0927L16.0639 18.0818C14.9894 18.8018 13.6148 19.2272 12.0003 19.2272C8.87483 19.2272 6.22938 17.1163 5.28574 14.28H1.27665V17.3891C3.2512 21.3109 7.30938 24 12.0003 24Z" fill="#34A853"/>
<path fill-rule="evenodd" clip-rule="evenodd" d="M5.28545 14.28C5.04545 13.56 4.90909 12.7909 4.90909 12C4.90909 11.2091 5.04545 10.44 5.28545 9.72001V6.61092H1.27636C0.463636 8.23092 0 10.0636 0 12C0 13.9364 0.463636 15.7691 1.27636 17.3891L5.28545 14.28Z" fill="#FBBC05"/>
<path fill-rule="evenodd" clip-rule="evenodd" d="M12.0003 4.77273C13.7621 4.77273 15.3439 5.37818 16.5876 6.56727L20.0294 3.12545C17.9512 1.18909 15.2348 0 12.0003 0C7.30938 0 3.2512 2.68909 1.27665 6.61091L5.28574 9.72C6.22938 6.88363 8.87483 4.77273 12.0003 4.77273Z" fill="#EA4335"/>
</g>
<defs>
<clipPath id="clip0_1_371">
<rect width="24" height="24" fill="white"/>
</clipPath>
</defs>
</svg>
