<svg width="74" height="74" viewBox="0 0 74 74" fill="none" xmlns="http://www.w3.org/2000/svg">
<g filter="url(#filter0_d_1_510)">
<rect x="2" y="2" width="70" height="70" rx="10" fill="white"/>
<path d="M23.6868 43.2696L26.5026 34.8222C27.7793 30.9921 28.4177 29.077 29.9281 28.7205C31.4385 28.3639 32.8659 29.7913 35.7207 32.6461L41.3523 38.2777C44.2071 41.1325 45.6345 42.5599 45.2779 44.0703C44.9213 45.5807 43.0063 46.2191 39.1762 47.4958L30.7287 50.3116C26.1197 51.8479 23.8152 52.6161 22.5987 51.3996C21.3823 50.1832 22.1504 47.8787 23.6868 43.2696Z" stroke="#FFC529" stroke-width="2" stroke-linecap="round"/>
<path d="M37.392 47.5771C37.392 47.5771 36.1284 43.7752 36.1284 41.259C36.1284 38.7427 37.392 34.9408 37.392 34.9408M30.4421 49.4725C30.4421 49.4725 29.3749 44.886 29.1785 41.8908C28.854 36.942 30.4421 29.2545 30.4421 29.2545" stroke="#FFC529" stroke-width="2" stroke-linecap="round"/>
<path d="M41.1822 33.6768L41.4221 32.4769C41.6644 31.2654 42.5373 30.2766 43.7094 29.8859C44.8815 29.4952 45.7544 28.5064 45.9967 27.2949L46.2367 26.095" stroke="#FFC529" stroke-width="2" stroke-linecap="round"/>
<path d="M46.2822 39.0889L46.637 39.2937C47.7322 39.926 49.1091 39.7866 50.0553 38.9475C50.9121 38.1877 52.1324 37.995 53.1816 38.4538L53.6674 38.6662" stroke="#FFC529" stroke-width="2" stroke-linecap="round"/>
<path d="M33.3252 21.632C32.7627 22.5521 32.9037 23.7377 33.6662 24.5003L33.8294 24.6634C34.4846 25.3187 34.7263 26.2813 34.4581 27.1684" stroke="#FFC529" stroke-width="2" stroke-linecap="round"/>
<path d="M28.546 23.568C28.8951 23.2189 29.4612 23.2189 29.8103 23.568C30.1594 23.9171 30.1594 24.4831 29.8103 24.8322C29.4612 25.1814 28.8951 25.1814 28.546 24.8322C28.1969 24.4831 28.1969 23.9171 28.546 23.568Z" fill="#FFC529"/>
<path d="M37.2618 28.9285C37.611 28.5794 38.177 28.5794 38.5261 28.9285C38.8752 29.2776 38.8752 29.8436 38.5261 30.1928C38.177 30.5419 37.611 30.5419 37.2618 30.1928C36.9127 29.8436 36.9127 29.2776 37.2618 28.9285Z" fill="#FFC529"/>
<path d="M45.5952 33.9285C45.9443 33.5794 46.5103 33.5794 46.8594 33.9285C47.2085 34.2776 47.2085 34.8436 46.8594 35.1928C46.5103 35.5419 45.9443 35.5419 45.5952 35.1928C45.2461 34.8436 45.2461 34.2776 45.5952 33.9285Z" fill="#FFC529"/>
<path d="M48.7637 42.5223C49.1128 42.1732 49.6788 42.1732 50.028 42.5223C50.3771 42.8714 50.3771 43.4374 50.028 43.7865C49.6788 44.1356 49.1128 44.1356 48.7637 43.7865C48.4146 43.4374 48.4146 42.8714 48.7637 42.5223Z" fill="#FFC529"/>
<path d="M49.2693 29.857C48.1522 30.9741 48.9539 34.2131 48.9539 34.2131C48.9539 34.2131 52.1928 35.0147 53.31 33.8976C54.4931 32.7145 53.8237 31.1615 52.0006 31.1664C52.0054 29.3433 50.4525 28.6738 49.2693 29.857Z" stroke="#FFC529" stroke-width="1.5" stroke-linejoin="round"/>
<path d="M42.3138 22.6957L42.2678 22.8576C42.2173 23.0353 42.192 23.1242 42.2039 23.2115C42.2159 23.2988 42.2637 23.3745 42.3593 23.526L42.4463 23.664C42.7828 24.1972 42.951 24.4638 42.8364 24.6818C42.7218 24.8999 42.4002 24.925 41.7572 24.9752L41.5908 24.9882C41.4081 25.0024 41.3167 25.0096 41.2368 25.0516C41.157 25.0935 41.0976 25.1656 40.9789 25.3098L40.8709 25.441C40.4532 25.9483 40.2444 26.202 40.0062 26.1694C39.7679 26.1367 39.6581 25.8395 39.4384 25.2449L39.3816 25.0911C39.3192 24.9221 39.288 24.8376 39.2267 24.7763C39.1653 24.715 39.0809 24.6838 38.9119 24.6214L38.7581 24.5645C38.1635 24.3449 37.8662 24.235 37.8336 23.9968C37.801 23.7586 38.0546 23.5498 38.5619 23.1321L38.6932 23.024C38.8374 22.9054 38.9094 22.846 38.9514 22.7661C38.9934 22.6863 39.0005 22.5949 39.0148 22.4122L39.0278 22.2458C39.078 21.6027 39.1031 21.2812 39.3212 21.1666C39.5392 21.052 39.8058 21.2202 40.339 21.5566L40.4769 21.6437C40.6285 21.7393 40.7042 21.7871 40.7915 21.799C40.8787 21.811 40.9676 21.7857 41.1454 21.7352L41.3073 21.6892C41.9329 21.5114 42.2456 21.4226 42.413 21.5899C42.5804 21.7573 42.4915 22.0701 42.3138 22.6957Z" stroke="#FFC529" stroke-width="1.5"/>
</g>
<defs>
<filter id="filter0_d_1_510" x="0" y="0" width="74" height="74" filterUnits="userSpaceOnUse" color-interpolation-filters="sRGB">
<feFlood flood-opacity="0" result="BackgroundImageFix"/>
<feColorMatrix in="SourceAlpha" type="matrix" values="0 0 0 0 0 0 0 0 0 0 0 0 0 0 0 0 0 0 127 0" result="hardAlpha"/>
<feOffset/>
<feGaussianBlur stdDeviation="1"/>
<feComposite in2="hardAlpha" operator="out"/>
<feColorMatrix type="matrix" values="0 0 0 0 0.141176 0 0 0 0 0.101961 0 0 0 0 0.0156863 0 0 0 0.25 0"/>
<feBlend mode="normal" in2="BackgroundImageFix" result="effect1_dropShadow_1_510"/>
<feBlend mode="normal" in="SourceGraphic" in2="effect1_dropShadow_1_510" result="shape"/>
</filter>
</defs>
</svg>
